<svg width="55" height="41" fill="none" xmlns="http://www.w3.org/2000/svg">
  <path d="M50.782 34.189v-2.421c0-.45-.757-.879-2.116-1.266l.033-3.013c0-4.642-1.44-9.171-4.126-12.975a22.825 22.825 0 0 0-10.886-8.29l-.097-.604a1.722 1.722 0 0 0-.408-.872 1.747 1.747 0 0 0-.815-.521 23.148 23.148 0 0 0-12.925 0c-.317.093-.6.273-.818.52-.217.246-.36.548-.41.872l-.093.563a22.831 22.831 0 0 0-10.962 8.283A22.498 22.498 0 0 0 3 27.488v3.026c-1.34.386-2.087.81-2.087 1.257v2.421A.59.59 0 0 0 1 34.6a5.852 5.852 0 0 1 2.247-1.015c2.072-.5 4.179-.85 6.303-1.046a4.25 4.25 0 0 1 3.307 1.057 8.95 8.95 0 0 0 6.009 2.312H32.83a8.943 8.943 0 0 0 6.008-2.314 4.253 4.253 0 0 1 3.308-1.069c2.123.196 4.23.544 6.302 1.042a5.26 5.26 0 0 1 2.13.925c.035.035.078.066.108.099a.6.6 0 0 0 .096-.402Z" fill="#FFF100" />
  <path d="M12.89 29.094a53.064 53.064 0 0 1-.03-1.673c.007-8.416 1.992-15.964 5.262-21.235A22.831 22.831 0 0 0 7.16 14.468 22.498 22.498 0 0 0 3 27.488v3.026a55.9 55.9 0 0 1 9.89-1.42Z" fill="url(#a)" />
  <path d="M48.697 27.488a22.425 22.425 0 0 0-5.215-14.396 46.55 46.55 0 0 1 2.162 14.325c0 .82-.022 1.63-.06 2.435a28.49 28.49 0 0 1 3.074.648l.038-3.012Z" fill="url(#b)" />
  <path d="M48.448 33.576c-2.073-.5-4.18-.85-6.303-1.046a4.252 4.252 0 0 0-3.308 1.062 8.943 8.943 0 0 1-6.009 2.313H18.87a8.948 8.948 0 0 1-6.006-2.312 4.249 4.249 0 0 0-3.308-1.071c-2.124.196-4.23.546-6.303 1.045a5.929 5.929 0 0 0-2.246 1.015c1.06 1.608 11.782 3.295 24.846 3.295 13.065 0 23.782-1.693 24.844-3.294-.037-.032-.078-.063-.109-.098a5.463 5.463 0 0 0-2.14-.909Z" fill="url(#c)" />
  <path d="M25.846 10.414 20.5 19.436l5.346 3.29V10.413Z" fill="#0A0A0A" />
  <path d="M25.848 10.417v12.306l5.345-3.284-5.345-9.022ZM25.848 24.51v4.291c.1-.142 5.345-7.58 5.345-7.583l-5.345 3.293Z" fill="#4B4D4D" />
  <path d="m25.848 24.512-5.346-3.288 5.346 7.58V24.51v.002Z" fill="#0A0A0A" />
  
  <defs>
    <linearGradient id="a" x1="10.561" y1="30.514" x2="10.561" y2="6.186" gradientUnits="userSpaceOnUse">
      <stop stop-color="#EDCF00" />
      <stop offset=".33" stop-color="#F0D500" />
      <stop offset=".77" stop-color="#F9E500" />
      <stop offset="1" stop-color="#FFF100" />
    </linearGradient>
    <linearGradient id="b" x1="46.089" y1="30.692" x2="46.089" y2="13.092" gradientUnits="userSpaceOnUse">
      <stop stop-color="#EDCF00" />
      <stop offset=".59" stop-color="#F7E100" />
      <stop offset="1" stop-color="#FFF100" />
    </linearGradient>
    <radialGradient id="c" cx="0" cy="0" r="1" gradientUnits="userSpaceOnUse" gradientTransform="matrix(18.5398 0 0 18.4136 3.701 47.135)">
      <stop stop-color="#FFF100" />
      <stop offset=".23" stop-color="#F9E500" />
      <stop offset=".67" stop-color="#F0D500" />
      <stop offset="1" stop-color="#EDCF00" />
    </radialGradient>
  </defs>
</svg>